<mxfile host="app.diagrams.net" modified="2022-05-03T08:37:35.813Z" agent="5.0 (Windows NT 10.0; Win64; x64) AppleWebKit/537.36 (KHTML, like Gecko) Chrome/100.0.4896.127 Safari/537.36" etag="hWpvp3MCs1DOJLTJHE43" version="17.5.0" type="github">
  <diagram id="Cf0RVaHx5z0GXCmpTnGg" name="Page-1">
    <mxGraphModel dx="1422" dy="5162" grid="1" gridSize="10" guides="1" tooltips="1" connect="1" arrows="1" fold="1" page="1" pageScale="1" pageWidth="850" pageHeight="1100" math="0" shadow="0">
      <root>
        <mxCell id="0" />
        <mxCell id="1" parent="0" />
        <mxCell id="QLZo8JKES9EvlnQhLi1A-2" value="&lt;table border=&quot;0&quot; cellpadding=&quot;0&quot; cellspacing=&quot;0&quot; width=&quot;194&quot; style=&quot;border-collapse: collapse ; width: 145pt&quot;&gt;&#xa;&#xa; &lt;colgroup&gt;&lt;col width=&quot;107&quot; style=&quot;width: 80pt&quot;&gt;&#xa; &lt;col width=&quot;87&quot; style=&quot;width: 65pt&quot;&gt;&#xa; &lt;/colgroup&gt;&lt;tbody&gt;&lt;tr style=&quot;height: 15.0pt&quot;&gt;&#xa;  &lt;td height=&quot;20&quot; width=&quot;107&quot; style=&quot;height: 15.0pt ; width: 80pt ; font-size: 11.0pt ; color: white ; font-weight: 700 ; text-decoration: none ; font-family: &amp;quot;calibri&amp;quot; , sans-serif ; border-top: 0.5pt solid #5b9bd5 ; border-right: none ; border-bottom: none ; border-left: 0.5pt solid #5b9bd5 ; background: #5b9bd5&quot;&gt;COA Code&lt;/td&gt;&#xa;  &lt;td width=&quot;87&quot; style=&quot;width: 65pt ; font-size: 11.0pt ; color: white ; font-weight: 700 ; text-decoration: none ; font-family: &amp;quot;calibri&amp;quot; , sans-serif ; border-top: 0.5pt solid #5b9bd5 ; border-right: 0.5pt solid #5b9bd5 ; border-bottom: none ; border-left: none ; background: #5b9bd5&quot;&gt;Name&lt;/td&gt;&#xa; &lt;/tr&gt;&#xa; &lt;tr style=&quot;height: 15.0pt&quot;&gt;&#xa;  &lt;td height=&quot;20&quot; class=&quot;xl63&quot; style=&quot;height: 15.0pt ; font-size: 11.0pt ; color: black ; font-weight: 400 ; text-decoration: none ; font-family: &amp;quot;calibri&amp;quot; , sans-serif ; border-top: 0.5pt solid #5b9bd5 ; border-right: none ; border-bottom: 0.5pt solid #5b9bd5 ; border-left: 0.5pt solid #5b9bd5 ; background: #ed7d31&quot;&gt;700001&lt;/td&gt;&#xa;  &lt;td class=&quot;xl64&quot; style=&quot;font-size: 11.0pt ; color: black ; font-weight: 400 ; text-decoration: none ; font-family: &amp;quot;calibri&amp;quot; , sans-serif ; border-top: 0.5pt solid #5b9bd5 ; border-right: 0.5pt solid #5b9bd5 ; border-bottom: 0.5pt solid #5b9bd5 ; border-left: none ; background: #ffc000&quot;&gt;Gross sales&lt;/td&gt;&#xa; &lt;/tr&gt;&#xa;&#xa;&lt;/tbody&gt;&lt;/table&gt;" style="text;whiteSpace=wrap;html=1;" vertex="1" parent="1">
          <mxGeometry x="60" y="-180" width="220" height="280" as="geometry" />
        </mxCell>
        <mxCell id="QLZo8JKES9EvlnQhLi1A-3" value="&lt;table border=&quot;0&quot; cellpadding=&quot;0&quot; cellspacing=&quot;0&quot; width=&quot;424&quot; style=&quot;border-collapse: collapse ; width: 319pt&quot;&gt;&#xa;&#xa; &lt;colgroup&gt;&lt;col width=&quot;73&quot; span=&quot;4&quot; style=&quot;width: 55pt&quot;&gt;&#xa; &lt;col width=&quot;132&quot; style=&quot;width: 99pt&quot;&gt;&#xa; &lt;/colgroup&gt;&lt;tbody&gt;&lt;tr style=&quot;height: 15.0pt&quot;&gt;&#xa;  &lt;td height=&quot;20&quot; width=&quot;73&quot; style=&quot;height: 15.0pt ; width: 55pt ; font-size: 11.0pt ; color: white ; font-weight: 700 ; text-decoration: none ; font-family: &amp;quot;calibri&amp;quot; , sans-serif ; border-top: 0.5pt solid #5b9bd5 ; border-right: none ; border-bottom: none ; border-left: 0.5pt solid #5b9bd5 ; background: #5b9bd5&quot;&gt;COA Code&lt;/td&gt;&#xa;  &lt;td width=&quot;73&quot; style=&quot;width: 55pt ; font-size: 11.0pt ; color: white ; font-weight: 700 ; text-decoration: none ; font-family: &amp;quot;calibri&amp;quot; , sans-serif ; border-top: 0.5pt solid #5b9bd5 ; border-right: none ; border-bottom: none ; border-left: none ; background: #5b9bd5&quot;&gt;Division&lt;/td&gt;&#xa;  &lt;td width=&quot;73&quot; style=&quot;width: 55pt ; font-size: 11.0pt ; color: white ; font-weight: 700 ; text-decoration: none ; font-family: &amp;quot;calibri&amp;quot; , sans-serif ; border-top: 0.5pt solid #5b9bd5 ; border-right: none ; border-bottom: none ; border-left: none ; background: #5b9bd5&quot;&gt;Cost&#xa;  center&lt;/td&gt;&#xa;  &lt;td width=&quot;73&quot; style=&quot;width: 55pt ; font-size: 11.0pt ; color: white ; font-weight: 700 ; text-decoration: none ; font-family: &amp;quot;calibri&amp;quot; , sans-serif ; border-top: 0.5pt solid #5b9bd5 ; border-right: none ; border-bottom: none ; border-left: none ; background: #5b9bd5&quot;&gt;Location&lt;/td&gt;&#xa;  &lt;td class=&quot;xl63&quot; width=&quot;132&quot; style=&quot;width: 99pt ; font-size: 11.0pt ; color: white ; font-weight: 700 ; text-decoration: none ; font-family: &amp;quot;calibri&amp;quot; , sans-serif ; border-top: 0.5pt solid #5b9bd5 ; border-right: 0.5pt solid #5b9bd5 ; border-bottom: none ; border-left: none ; background: #5b9bd5&quot;&gt;Amount&lt;/td&gt;&#xa; &lt;/tr&gt;&#xa; &lt;tr style=&quot;height: 15.0pt&quot;&gt;&#xa;  &lt;td height=&quot;20&quot; style=&quot;height: 15.0pt ; font-size: 11.0pt ; color: black ; font-weight: 400 ; text-decoration: none ; font-family: &amp;quot;calibri&amp;quot; , sans-serif ; border-top: 0.5pt solid #5b9bd5 ; border-right: none ; border-bottom: none ; border-left: 0.5pt solid #5b9bd5&quot;&gt;700001&lt;/td&gt;&#xa;  &lt;td style=&quot;font-size: 11.0pt ; color: black ; font-weight: 400 ; text-decoration: none ; font-family: &amp;quot;calibri&amp;quot; , sans-serif ; border-top: 0.5pt solid #5b9bd5 ; border-right: none ; border-bottom: none ; border-left: none&quot;&gt;Corp&lt;/td&gt;&#xa;  &lt;td style=&quot;font-size: 11.0pt ; color: black ; font-weight: 400 ; text-decoration: none ; font-family: &amp;quot;calibri&amp;quot; , sans-serif ; border-top: 0.5pt solid #5b9bd5 ; border-right: none ; border-bottom: none ; border-left: none&quot;&gt;4100&lt;/td&gt;&#xa;  &lt;td style=&quot;font-size: 11.0pt ; color: black ; font-weight: 400 ; text-decoration: none ; font-family: &amp;quot;calibri&amp;quot; , sans-serif ; border-top: 0.5pt solid #5b9bd5 ; border-right: none ; border-bottom: none ; border-left: none&quot;&gt;UKR&lt;/td&gt;&#xa;  &lt;td class=&quot;xl64&quot; style=&quot;font-size: 11.0pt ; color: black ; font-weight: 400 ; text-decoration: none ; font-family: &amp;quot;calibri&amp;quot; , sans-serif ; border-top: 0.5pt solid #5b9bd5 ; border-right: 0.5pt solid #5b9bd5 ; border-bottom: none ; border-left: none ; background: #ffc000&quot;&gt;-288 143 640,79&lt;/td&gt;&#xa; &lt;/tr&gt;&#xa; &lt;tr style=&quot;height: 15.0pt&quot;&gt;&#xa;  &lt;td height=&quot;20&quot; style=&quot;height: 15.0pt ; font-size: 11.0pt ; color: black ; font-weight: 400 ; text-decoration: none ; font-family: &amp;quot;calibri&amp;quot; , sans-serif ; border-top: 0.5pt solid #5b9bd5 ; border-right: none ; border-bottom: none ; border-left: 0.5pt solid #5b9bd5&quot;&gt;700001&lt;/td&gt;&#xa;  &lt;td style=&quot;font-size: 11.0pt ; color: black ; font-weight: 400 ; text-decoration: none ; font-family: &amp;quot;calibri&amp;quot; , sans-serif ; border-top: 0.5pt solid #5b9bd5 ; border-right: none ; border-bottom: none ; border-left: none&quot;&gt;F&amp;amp;B&lt;/td&gt;&#xa;  &lt;td style=&quot;font-size: 11.0pt ; color: black ; font-weight: 400 ; text-decoration: none ; font-family: &amp;quot;calibri&amp;quot; , sans-serif ; border-top: 0.5pt solid #5b9bd5 ; border-right: none ; border-bottom: none ; border-left: none&quot;&gt;4100&lt;/td&gt;&#xa;  &lt;td style=&quot;font-size: 11.0pt ; color: black ; font-weight: 400 ; text-decoration: none ; font-family: &amp;quot;calibri&amp;quot; , sans-serif ; border-top: 0.5pt solid #5b9bd5 ; border-right: none ; border-bottom: none ; border-left: none&quot;&gt;UKR&lt;/td&gt;&#xa;  &lt;td class=&quot;xl64&quot; style=&quot;font-size: 11.0pt ; color: black ; font-weight: 400 ; text-decoration: none ; font-family: &amp;quot;calibri&amp;quot; , sans-serif ; border-top: 0.5pt solid #5b9bd5 ; border-right: 0.5pt solid #5b9bd5 ; border-bottom: none ; border-left: none ; background: #ffc000&quot;&gt;-288 143 640,79&lt;/td&gt;&#xa; &lt;/tr&gt;&#xa; &lt;tr style=&quot;height: 15.0pt&quot;&gt;&#xa;  &lt;td height=&quot;20&quot; style=&quot;height: 15.0pt ; font-size: 11.0pt ; color: black ; font-weight: 400 ; text-decoration: none ; font-family: &amp;quot;calibri&amp;quot; , sans-serif ; border-top: 0.5pt solid #5b9bd5 ; border-right: none ; border-bottom: none ; border-left: 0.5pt solid #5b9bd5&quot;&gt;700001&lt;/td&gt;&#xa;  &lt;td style=&quot;font-size: 11.0pt ; color: black ; font-weight: 400 ; text-decoration: none ; font-family: &amp;quot;calibri&amp;quot; , sans-serif ; border-top: 0.5pt solid #5b9bd5 ; border-right: none ; border-bottom: none ; border-left: none&quot;&gt;Fashion&lt;/td&gt;&#xa;  &lt;td style=&quot;font-size: 11.0pt ; color: black ; font-weight: 400 ; text-decoration: none ; font-family: &amp;quot;calibri&amp;quot; , sans-serif ; border-top: 0.5pt solid #5b9bd5 ; border-right: none ; border-bottom: none ; border-left: none&quot;&gt;4100&lt;/td&gt;&#xa;  &lt;td style=&quot;font-size: 11.0pt ; color: black ; font-weight: 400 ; text-decoration: none ; font-family: &amp;quot;calibri&amp;quot; , sans-serif ; border-top: 0.5pt solid #5b9bd5 ; border-right: none ; border-bottom: none ; border-left: none&quot;&gt;BTQ 1&lt;/td&gt;&#xa;  &lt;td class=&quot;xl64&quot; style=&quot;font-size: 11.0pt ; color: black ; font-weight: 400 ; text-decoration: none ; font-family: &amp;quot;calibri&amp;quot; , sans-serif ; border-top: 0.5pt solid #5b9bd5 ; border-right: 0.5pt solid #5b9bd5 ; border-bottom: none ; border-left: none ; background: #ffc000&quot;&gt;-409 633 601,57&lt;/td&gt;&#xa; &lt;/tr&gt;&#xa; &lt;tr style=&quot;height: 15.0pt&quot;&gt;&#xa;  &lt;td height=&quot;20&quot; style=&quot;height: 15.0pt ; font-size: 11.0pt ; color: black ; font-weight: 400 ; text-decoration: none ; font-family: &amp;quot;calibri&amp;quot; , sans-serif ; border-top: 0.5pt solid #5b9bd5 ; border-right: none ; border-bottom: none ; border-left: 0.5pt solid #5b9bd5&quot;&gt;700001&lt;/td&gt;&#xa;  &lt;td style=&quot;font-size: 11.0pt ; color: black ; font-weight: 400 ; text-decoration: none ; font-family: &amp;quot;calibri&amp;quot; , sans-serif ; border-top: 0.5pt solid #5b9bd5 ; border-right: none ; border-bottom: none ; border-left: none&quot;&gt;FJ&lt;/td&gt;&#xa;  &lt;td style=&quot;font-size: 11.0pt ; color: black ; font-weight: 400 ; text-decoration: none ; font-family: &amp;quot;calibri&amp;quot; , sans-serif ; border-top: 0.5pt solid #5b9bd5 ; border-right: none ; border-bottom: none ; border-left: none&quot;&gt;4100&lt;/td&gt;&#xa;  &lt;td style=&quot;font-size: 11.0pt ; color: black ; font-weight: 400 ; text-decoration: none ; font-family: &amp;quot;calibri&amp;quot; , sans-serif ; border-top: 0.5pt solid #5b9bd5 ; border-right: none ; border-bottom: none ; border-left: none&quot;&gt;BTQ 1&lt;/td&gt;&#xa;  &lt;td class=&quot;xl64&quot; style=&quot;font-size: 11.0pt ; color: black ; font-weight: 400 ; text-decoration: none ; font-family: &amp;quot;calibri&amp;quot; , sans-serif ; border-top: 0.5pt solid #5b9bd5 ; border-right: 0.5pt solid #5b9bd5 ; border-bottom: none ; border-left: none ; background: #ffc000&quot;&gt;-3 823 000,00&lt;/td&gt;&#xa; &lt;/tr&gt;&#xa; &lt;tr style=&quot;height: 15.0pt&quot;&gt;&#xa;  &lt;td height=&quot;20&quot; style=&quot;height: 15.0pt ; font-size: 11.0pt ; color: black ; font-weight: 400 ; text-decoration: none ; font-family: &amp;quot;calibri&amp;quot; , sans-serif ; border-top: 0.5pt solid #5b9bd5 ; border-right: none ; border-bottom: none ; border-left: 0.5pt solid #5b9bd5&quot;&gt;700001&lt;/td&gt;&#xa;  &lt;td style=&quot;font-size: 11.0pt ; color: black ; font-weight: 400 ; text-decoration: none ; font-family: &amp;quot;calibri&amp;quot; , sans-serif ; border-top: 0.5pt solid #5b9bd5 ; border-right: none ; border-bottom: none ; border-left: none&quot;&gt;Watches&lt;/td&gt;&#xa;  &lt;td style=&quot;font-size: 11.0pt ; color: black ; font-weight: 400 ; text-decoration: none ; font-family: &amp;quot;calibri&amp;quot; , sans-serif ; border-top: 0.5pt solid #5b9bd5 ; border-right: none ; border-bottom: none ; border-left: none&quot;&gt;4100&lt;/td&gt;&#xa;  &lt;td style=&quot;font-size: 11.0pt ; color: black ; font-weight: 400 ; text-decoration: none ; font-family: &amp;quot;calibri&amp;quot; , sans-serif ; border-top: 0.5pt solid #5b9bd5 ; border-right: none ; border-bottom: none ; border-left: none&quot;&gt;BTQ 1&lt;/td&gt;&#xa;  &lt;td class=&quot;xl64&quot; style=&quot;font-size: 11.0pt ; color: black ; font-weight: 400 ; text-decoration: none ; font-family: &amp;quot;calibri&amp;quot; , sans-serif ; border-top: 0.5pt solid #5b9bd5 ; border-right: 0.5pt solid #5b9bd5 ; border-bottom: none ; border-left: none ; background: #ffc000&quot;&gt;-6 123 000,00&lt;/td&gt;&#xa; &lt;/tr&gt;&#xa;&#xa;&lt;/tbody&gt;&lt;/table&gt;" style="text;whiteSpace=wrap;html=1;" vertex="1" parent="1">
          <mxGeometry x="750" y="-710" width="450" height="810" as="geometry" />
        </mxCell>
        <mxCell id="QLZo8JKES9EvlnQhLi1A-4" value="&lt;table border=&quot;0&quot; cellpadding=&quot;0&quot; cellspacing=&quot;0&quot; width=&quot;741&quot; style=&quot;border-collapse: collapse ; width: 556pt&quot;&gt;&#xa;&#xa; &lt;colgroup&gt;&lt;col width=&quot;116&quot; style=&quot;width: 87pt&quot;&gt;&#xa; &lt;col width=&quot;92&quot; style=&quot;width: 69pt&quot;&gt;&#xa; &lt;col width=&quot;80&quot; style=&quot;width: 60pt&quot;&gt;&#xa; &lt;col width=&quot;74&quot; style=&quot;width: 56pt&quot;&gt;&#xa; &lt;col width=&quot;84&quot; style=&quot;width: 63pt&quot;&gt;&#xa; &lt;col width=&quot;216&quot; style=&quot;width: 162pt&quot;&gt;&#xa; &lt;col width=&quot;79&quot; style=&quot;width: 59pt&quot;&gt;&#xa; &lt;/colgroup&gt;&lt;tbody&gt;&lt;tr style=&quot;height: 15.0pt&quot;&gt;&#xa;  &lt;td height=&quot;20&quot; width=&quot;116&quot; style=&quot;height: 15.0pt ; width: 87pt ; font-size: 11.0pt ; color: white ; font-weight: 700 ; text-decoration: none ; font-family: &amp;quot;calibri&amp;quot; , sans-serif ; border-top: 0.5pt solid #5b9bd5 ; border-right: none ; border-bottom: none ; border-left: 0.5pt solid #5b9bd5 ; background: #5b9bd5&quot;&gt;Ledger account&lt;/td&gt;&#xa;  &lt;td width=&quot;92&quot; style=&quot;width: 69pt ; font-size: 11.0pt ; color: white ; font-weight: 700 ; text-decoration: none ; font-family: &amp;quot;calibri&amp;quot; , sans-serif ; border-top: 0.5pt solid #5b9bd5 ; border-right: none ; border-bottom: none ; border-left: none ; background: #5b9bd5&quot;&gt;Cost&#xa;  center&lt;/td&gt;&#xa;  &lt;td width=&quot;80&quot; style=&quot;width: 60pt ; font-size: 11.0pt ; color: white ; font-weight: 700 ; text-decoration: none ; font-family: &amp;quot;calibri&amp;quot; , sans-serif ; border-top: 0.5pt solid #5b9bd5 ; border-right: none ; border-bottom: none ; border-left: none ; background: #5b9bd5&quot;&gt;Division&lt;/td&gt;&#xa;  &lt;td width=&quot;74&quot; style=&quot;width: 56pt ; font-size: 11.0pt ; color: white ; font-weight: 700 ; text-decoration: none ; font-family: &amp;quot;calibri&amp;quot; , sans-serif ; border-top: 0.5pt solid #5b9bd5 ; border-right: none ; border-bottom: none ; border-left: none ; background: #5b9bd5&quot;&gt;Location&lt;/td&gt;&#xa;  &lt;td width=&quot;84&quot; style=&quot;width: 63pt ; font-size: 11.0pt ; color: white ; font-weight: 700 ; text-decoration: none ; font-family: &amp;quot;calibri&amp;quot; , sans-serif ; border-top: 0.5pt solid #5b9bd5 ; border-right: none ; border-bottom: none ; border-left: none ; background: #5b9bd5&quot;&gt;COA&#xa;  Code&lt;/td&gt;&#xa;  &lt;td class=&quot;xl65&quot; width=&quot;216&quot; style=&quot;width: 162pt ; font-size: 11.0pt ; color: white ; font-weight: 700 ; text-decoration: none ; font-family: &amp;quot;calibri&amp;quot; , sans-serif ; border-top: 0.5pt solid #5b9bd5 ; border-right: none ; border-bottom: none ; border-left: none ; background: #5b9bd5&quot;&gt;COA line&lt;/td&gt;&#xa;  &lt;td class=&quot;xl65&quot; width=&quot;79&quot; style=&quot;width: 59pt ; font-size: 11.0pt ; color: white ; font-weight: 700 ; text-decoration: none ; font-family: &amp;quot;calibri&amp;quot; , sans-serif ; border-top: 0.5pt solid #5b9bd5 ; border-right: 0.5pt solid #5b9bd5 ; border-bottom: none ; border-left: none ; background: #5b9bd5&quot;&gt;allow posting&lt;/td&gt;&#xa; &lt;/tr&gt;&#xa; &lt;tr style=&quot;height: 15.0pt&quot;&gt;&#xa;  &lt;td height=&quot;20&quot; style=&quot;height: 15.0pt ; font-size: 11.0pt ; color: black ; font-weight: 400 ; text-decoration: none ; font-family: &amp;quot;calibri&amp;quot; , sans-serif ; border-top: 0.5pt solid #5b9bd5 ; border-right: none ; border-bottom: none ; border-left: 0.5pt solid #5b9bd5&quot;&gt;701.0101&lt;/td&gt;&#xa;  &lt;td style=&quot;font-size: 11.0pt ; color: black ; font-weight: 400 ; text-decoration: none ; font-family: &amp;quot;calibri&amp;quot; , sans-serif ; border-top: 0.5pt solid #5b9bd5 ; border-right: none ; border-bottom: none ; border-left: none&quot;&gt;4100&lt;/td&gt;&#xa;  &lt;td style=&quot;font-size: 11.0pt ; color: black ; font-weight: 400 ; text-decoration: none ; font-family: &amp;quot;calibri&amp;quot; , sans-serif ; border-top: 0.5pt solid #5b9bd5 ; border-right: none ; border-bottom: none ; border-left: none&quot;&gt;F&amp;amp;B&lt;/td&gt;&#xa;  &lt;td style=&quot;font-size: 11.0pt ; color: black ; font-weight: 400 ; text-decoration: none ; font-family: &amp;quot;calibri&amp;quot; , sans-serif ; border-top: 0.5pt solid #5b9bd5 ; border-right: none ; border-bottom: none ; border-left: none&quot;&gt;UKR&lt;/td&gt;&#xa;  &lt;td style=&quot;font-size: 11.0pt ; color: black ; font-weight: 400 ; text-decoration: none ; font-family: &amp;quot;calibri&amp;quot; , sans-serif ; border-top: 0.5pt solid #5b9bd5 ; border-right: none ; border-bottom: none ; border-left: none&quot;&gt;700001&lt;/td&gt;&#xa;  &lt;td class=&quot;xl63&quot; style=&quot;font-size: 11.0pt ; color: black ; font-weight: 400 ; text-decoration: none ; font-family: &amp;quot;calibri&amp;quot; , sans-serif ; border-top: 0.5pt solid #5b9bd5 ; border-right: none ; border-bottom: none ; border-left: none ; background: #ffc000&quot;&gt;4100Gross&#xa;  sales before returns&lt;/td&gt;&#xa;  &lt;td class=&quot;xl64&quot; style=&quot;font-size: 11.0pt ; color: black ; font-weight: 400 ; text-decoration: none ; font-family: &amp;quot;calibri&amp;quot; , sans-serif ; border-top: 0.5pt solid #5b9bd5 ; border-right: 0.5pt solid #5b9bd5 ; border-bottom: none ; border-left: none ; background: #fce4d6&quot;&gt;Yes&lt;/td&gt;&#xa; &lt;/tr&gt;&#xa; &lt;tr style=&quot;height: 15.0pt&quot;&gt;&#xa;  &lt;td height=&quot;20&quot; style=&quot;height: 15.0pt ; font-size: 11.0pt ; color: black ; font-weight: 400 ; text-decoration: none ; font-family: &amp;quot;calibri&amp;quot; , sans-serif ; border-top: 0.5pt solid #5b9bd5 ; border-right: none ; border-bottom: none ; border-left: 0.5pt solid #5b9bd5&quot;&gt;701.0101&lt;/td&gt;&#xa;  &lt;td style=&quot;font-size: 11.0pt ; color: black ; font-weight: 400 ; text-decoration: none ; font-family: &amp;quot;calibri&amp;quot; , sans-serif ; border-top: 0.5pt solid #5b9bd5 ; border-right: none ; border-bottom: none ; border-left: none&quot;&gt;4100&lt;/td&gt;&#xa;  &lt;td style=&quot;font-size: 11.0pt ; color: black ; font-weight: 400 ; text-decoration: none ; font-family: &amp;quot;calibri&amp;quot; , sans-serif ; border-top: 0.5pt solid #5b9bd5 ; border-right: none ; border-bottom: none ; border-left: none&quot;&gt;Fashion&lt;/td&gt;&#xa;  &lt;td style=&quot;font-size: 11.0pt ; color: black ; font-weight: 400 ; text-decoration: none ; font-family: &amp;quot;calibri&amp;quot; , sans-serif ; border-top: 0.5pt solid #5b9bd5 ; border-right: none ; border-bottom: none ; border-left: none&quot;&gt;BTQ 1&lt;/td&gt;&#xa;  &lt;td style=&quot;font-size: 11.0pt ; color: black ; font-weight: 400 ; text-decoration: none ; font-family: &amp;quot;calibri&amp;quot; , sans-serif ; border-top: 0.5pt solid #5b9bd5 ; border-right: none ; border-bottom: none ; border-left: none&quot;&gt;700001&lt;/td&gt;&#xa;  &lt;td class=&quot;xl63&quot; style=&quot;font-size: 11.0pt ; color: black ; font-weight: 400 ; text-decoration: none ; font-family: &amp;quot;calibri&amp;quot; , sans-serif ; border-top: 0.5pt solid #5b9bd5 ; border-right: none ; border-bottom: none ; border-left: none ; background: #ffc000&quot;&gt;4100Gross&#xa;  sales before returns&lt;/td&gt;&#xa;  &lt;td class=&quot;xl64&quot; style=&quot;font-size: 11.0pt ; color: black ; font-weight: 400 ; text-decoration: none ; font-family: &amp;quot;calibri&amp;quot; , sans-serif ; border-top: 0.5pt solid #5b9bd5 ; border-right: 0.5pt solid #5b9bd5 ; border-bottom: none ; border-left: none ; background: #fce4d6&quot;&gt;Yes&lt;/td&gt;&#xa; &lt;/tr&gt;&#xa; &lt;tr style=&quot;height: 15.0pt&quot;&gt;&#xa;  &lt;td height=&quot;20&quot; style=&quot;height: 15.0pt ; font-size: 11.0pt ; color: black ; font-weight: 400 ; text-decoration: none ; font-family: &amp;quot;calibri&amp;quot; , sans-serif ; border-top: 0.5pt solid #5b9bd5 ; border-right: none ; border-bottom: none ; border-left: 0.5pt solid #5b9bd5&quot;&gt;701.0101&lt;/td&gt;&#xa;  &lt;td style=&quot;font-size: 11.0pt ; color: black ; font-weight: 400 ; text-decoration: none ; font-family: &amp;quot;calibri&amp;quot; , sans-serif ; border-top: 0.5pt solid #5b9bd5 ; border-right: none ; border-bottom: none ; border-left: none&quot;&gt;4100&lt;/td&gt;&#xa;  &lt;td style=&quot;font-size: 11.0pt ; color: black ; font-weight: 400 ; text-decoration: none ; font-family: &amp;quot;calibri&amp;quot; , sans-serif ; border-top: 0.5pt solid #5b9bd5 ; border-right: none ; border-bottom: none ; border-left: none&quot;&gt;FJ&lt;/td&gt;&#xa;  &lt;td style=&quot;font-size: 11.0pt ; color: black ; font-weight: 400 ; text-decoration: none ; font-family: &amp;quot;calibri&amp;quot; , sans-serif ; border-top: 0.5pt solid #5b9bd5 ; border-right: none ; border-bottom: none ; border-left: none&quot;&gt;BTQ 1&lt;/td&gt;&#xa;  &lt;td style=&quot;font-size: 11.0pt ; color: black ; font-weight: 400 ; text-decoration: none ; font-family: &amp;quot;calibri&amp;quot; , sans-serif ; border-top: 0.5pt solid #5b9bd5 ; border-right: none ; border-bottom: none ; border-left: none&quot;&gt;700001&lt;/td&gt;&#xa;  &lt;td class=&quot;xl63&quot; style=&quot;font-size: 11.0pt ; color: black ; font-weight: 400 ; text-decoration: none ; font-family: &amp;quot;calibri&amp;quot; , sans-serif ; border-top: 0.5pt solid #5b9bd5 ; border-right: none ; border-bottom: none ; border-left: none ; background: #ffc000&quot;&gt;4100Gross&#xa;  sales before returns&lt;/td&gt;&#xa;  &lt;td class=&quot;xl64&quot; style=&quot;font-size: 11.0pt ; color: black ; font-weight: 400 ; text-decoration: none ; font-family: &amp;quot;calibri&amp;quot; , sans-serif ; border-top: 0.5pt solid #5b9bd5 ; border-right: 0.5pt solid #5b9bd5 ; border-bottom: none ; border-left: none ; background: #fce4d6&quot;&gt;Yes&lt;/td&gt;&#xa; &lt;/tr&gt;&#xa; &lt;tr style=&quot;height: 15.0pt&quot;&gt;&#xa;  &lt;td height=&quot;20&quot; style=&quot;height: 15.0pt ; font-size: 11.0pt ; color: black ; font-weight: 400 ; text-decoration: none ; font-family: &amp;quot;calibri&amp;quot; , sans-serif ; border-top: 0.5pt solid #5b9bd5 ; border-right: none ; border-bottom: none ; border-left: 0.5pt solid #5b9bd5&quot;&gt;701.0101&lt;/td&gt;&#xa;  &lt;td style=&quot;font-size: 11.0pt ; color: black ; font-weight: 400 ; text-decoration: none ; font-family: &amp;quot;calibri&amp;quot; , sans-serif ; border-top: 0.5pt solid #5b9bd5 ; border-right: none ; border-bottom: none ; border-left: none&quot;&gt;4100&lt;/td&gt;&#xa;  &lt;td style=&quot;font-size: 11.0pt ; color: black ; font-weight: 400 ; text-decoration: none ; font-family: &amp;quot;calibri&amp;quot; , sans-serif ; border-top: 0.5pt solid #5b9bd5 ; border-right: none ; border-bottom: none ; border-left: none&quot;&gt;Watches&lt;/td&gt;&#xa;  &lt;td style=&quot;font-size: 11.0pt ; color: black ; font-weight: 400 ; text-decoration: none ; font-family: &amp;quot;calibri&amp;quot; , sans-serif ; border-top: 0.5pt solid #5b9bd5 ; border-right: none ; border-bottom: none ; border-left: none&quot;&gt;BTQ 1&lt;/td&gt;&#xa;  &lt;td style=&quot;font-size: 11.0pt ; color: black ; font-weight: 400 ; text-decoration: none ; font-family: &amp;quot;calibri&amp;quot; , sans-serif ; border-top: 0.5pt solid #5b9bd5 ; border-right: none ; border-bottom: none ; border-left: none&quot;&gt;700001&lt;/td&gt;&#xa;  &lt;td class=&quot;xl63&quot; style=&quot;font-size: 11.0pt ; color: black ; font-weight: 400 ; text-decoration: none ; font-family: &amp;quot;calibri&amp;quot; , sans-serif ; border-top: 0.5pt solid #5b9bd5 ; border-right: none ; border-bottom: none ; border-left: none ; background: #ffc000&quot;&gt;4100Gross&#xa;  sales before returns&lt;/td&gt;&#xa;  &lt;td class=&quot;xl64&quot; style=&quot;font-size: 11.0pt ; color: black ; font-weight: 400 ; text-decoration: none ; font-family: &amp;quot;calibri&amp;quot; , sans-serif ; border-top: 0.5pt solid #5b9bd5 ; border-right: 0.5pt solid #5b9bd5 ; border-bottom: none ; border-left: none ; background: #fce4d6&quot;&gt;Yes&lt;/td&gt;&#xa; &lt;/tr&gt;&#xa; &lt;tr style=&quot;height: 15.0pt&quot;&gt;&#xa;  &lt;td height=&quot;20&quot; style=&quot;height: 15.0pt ; font-size: 11.0pt ; color: black ; font-weight: 400 ; text-decoration: none ; font-family: &amp;quot;calibri&amp;quot; , sans-serif ; border-top: 0.5pt solid #5b9bd5 ; border-right: none ; border-bottom: none ; border-left: 0.5pt solid #5b9bd5&quot;&gt;701.0102&lt;/td&gt;&#xa;  &lt;td style=&quot;font-size: 11.0pt ; color: black ; font-weight: 400 ; text-decoration: none ; font-family: &amp;quot;calibri&amp;quot; , sans-serif ; border-top: 0.5pt solid #5b9bd5 ; border-right: none ; border-bottom: none ; border-left: none&quot;&gt;4100&lt;/td&gt;&#xa;  &lt;td style=&quot;font-size: 11.0pt ; color: black ; font-weight: 400 ; text-decoration: none ; font-family: &amp;quot;calibri&amp;quot; , sans-serif ; border-top: 0.5pt solid #5b9bd5 ; border-right: none ; border-bottom: none ; border-left: none&quot;&gt;F&amp;amp;B&lt;/td&gt;&#xa;  &lt;td style=&quot;font-size: 11.0pt ; color: black ; font-weight: 400 ; text-decoration: none ; font-family: &amp;quot;calibri&amp;quot; , sans-serif ; border-top: 0.5pt solid #5b9bd5 ; border-right: none ; border-bottom: none ; border-left: none&quot;&gt;UKR&lt;/td&gt;&#xa;  &lt;td style=&quot;font-size: 11.0pt ; color: black ; font-weight: 400 ; text-decoration: none ; font-family: &amp;quot;calibri&amp;quot; , sans-serif ; border-top: 0.5pt solid #5b9bd5 ; border-right: none ; border-bottom: none ; border-left: none&quot;&gt;700001&lt;/td&gt;&#xa;  &lt;td class=&quot;xl63&quot; style=&quot;font-size: 11.0pt ; color: black ; font-weight: 400 ; text-decoration: none ; font-family: &amp;quot;calibri&amp;quot; , sans-serif ; border-top: 0.5pt solid #5b9bd5 ; border-right: none ; border-bottom: none ; border-left: none ; background: #ffc000&quot;&gt;4100Gross&#xa;  sales before returns&lt;/td&gt;&#xa;  &lt;td class=&quot;xl64&quot; style=&quot;font-size: 11.0pt ; color: black ; font-weight: 400 ; text-decoration: none ; font-family: &amp;quot;calibri&amp;quot; , sans-serif ; border-top: 0.5pt solid #5b9bd5 ; border-right: 0.5pt solid #5b9bd5 ; border-bottom: none ; border-left: none ; background: #fce4d6&quot;&gt;Yes&lt;/td&gt;&#xa; &lt;/tr&gt;&#xa; &lt;tr style=&quot;height: 15.0pt&quot;&gt;&#xa;  &lt;td height=&quot;20&quot; style=&quot;height: 15.0pt ; font-size: 11.0pt ; color: black ; font-weight: 400 ; text-decoration: none ; font-family: &amp;quot;calibri&amp;quot; , sans-serif ; border-top: 0.5pt solid #5b9bd5 ; border-right: none ; border-bottom: none ; border-left: 0.5pt solid #5b9bd5&quot;&gt;701.0102&lt;/td&gt;&#xa;  &lt;td style=&quot;font-size: 11.0pt ; color: black ; font-weight: 400 ; text-decoration: none ; font-family: &amp;quot;calibri&amp;quot; , sans-serif ; border-top: 0.5pt solid #5b9bd5 ; border-right: none ; border-bottom: none ; border-left: none&quot;&gt;4100&lt;/td&gt;&#xa;  &lt;td style=&quot;font-size: 11.0pt ; color: black ; font-weight: 400 ; text-decoration: none ; font-family: &amp;quot;calibri&amp;quot; , sans-serif ; border-top: 0.5pt solid #5b9bd5 ; border-right: none ; border-bottom: none ; border-left: none&quot;&gt;Fashion&lt;/td&gt;&#xa;  &lt;td style=&quot;font-size: 11.0pt ; color: black ; font-weight: 400 ; text-decoration: none ; font-family: &amp;quot;calibri&amp;quot; , sans-serif ; border-top: 0.5pt solid #5b9bd5 ; border-right: none ; border-bottom: none ; border-left: none&quot;&gt;BTQ 1&lt;/td&gt;&#xa;  &lt;td style=&quot;font-size: 11.0pt ; color: black ; font-weight: 400 ; text-decoration: none ; font-family: &amp;quot;calibri&amp;quot; , sans-serif ; border-top: 0.5pt solid #5b9bd5 ; border-right: none ; border-bottom: none ; border-left: none&quot;&gt;700001&lt;/td&gt;&#xa;  &lt;td class=&quot;xl63&quot; style=&quot;font-size: 11.0pt ; color: black ; font-weight: 400 ; text-decoration: none ; font-family: &amp;quot;calibri&amp;quot; , sans-serif ; border-top: 0.5pt solid #5b9bd5 ; border-right: none ; border-bottom: none ; border-left: none ; background: #ffc000&quot;&gt;4100Gross&#xa;  sales before returns&lt;/td&gt;&#xa;  &lt;td class=&quot;xl64&quot; style=&quot;font-size: 11.0pt ; color: black ; font-weight: 400 ; text-decoration: none ; font-family: &amp;quot;calibri&amp;quot; , sans-serif ; border-top: 0.5pt solid #5b9bd5 ; border-right: 0.5pt solid #5b9bd5 ; border-bottom: none ; border-left: none ; background: #fce4d6&quot;&gt;Yes&lt;/td&gt;&#xa; &lt;/tr&gt;&#xa; &lt;tr style=&quot;height: 15.0pt&quot;&gt;&#xa;  &lt;td height=&quot;20&quot; style=&quot;height: 15.0pt ; font-size: 11.0pt ; color: black ; font-weight: 400 ; text-decoration: none ; font-family: &amp;quot;calibri&amp;quot; , sans-serif ; border-top: 0.5pt solid #5b9bd5 ; border-right: none ; border-bottom: none ; border-left: 0.5pt solid #5b9bd5&quot;&gt;701.0102&lt;/td&gt;&#xa;  &lt;td style=&quot;font-size: 11.0pt ; color: black ; font-weight: 400 ; text-decoration: none ; font-family: &amp;quot;calibri&amp;quot; , sans-serif ; border-top: 0.5pt solid #5b9bd5 ; border-right: none ; border-bottom: none ; border-left: none&quot;&gt;4100&lt;/td&gt;&#xa;  &lt;td style=&quot;font-size: 11.0pt ; color: black ; font-weight: 400 ; text-decoration: none ; font-family: &amp;quot;calibri&amp;quot; , sans-serif ; border-top: 0.5pt solid #5b9bd5 ; border-right: none ; border-bottom: none ; border-left: none&quot;&gt;FJ&lt;/td&gt;&#xa;  &lt;td style=&quot;font-size: 11.0pt ; color: black ; font-weight: 400 ; text-decoration: none ; font-family: &amp;quot;calibri&amp;quot; , sans-serif ; border-top: 0.5pt solid #5b9bd5 ; border-right: none ; border-bottom: none ; border-left: none&quot;&gt;BTQ 1&lt;/td&gt;&#xa;  &lt;td style=&quot;font-size: 11.0pt ; color: black ; font-weight: 400 ; text-decoration: none ; font-family: &amp;quot;calibri&amp;quot; , sans-serif ; border-top: 0.5pt solid #5b9bd5 ; border-right: none ; border-bottom: none ; border-left: none&quot;&gt;700001&lt;/td&gt;&#xa;  &lt;td class=&quot;xl63&quot; style=&quot;font-size: 11.0pt ; color: black ; font-weight: 400 ; text-decoration: none ; font-family: &amp;quot;calibri&amp;quot; , sans-serif ; border-top: 0.5pt solid #5b9bd5 ; border-right: none ; border-bottom: none ; border-left: none ; background: #ffc000&quot;&gt;4100Gross&#xa;  sales before returns&lt;/td&gt;&#xa;  &lt;td class=&quot;xl64&quot; style=&quot;font-size: 11.0pt ; color: black ; font-weight: 400 ; text-decoration: none ; font-family: &amp;quot;calibri&amp;quot; , sans-serif ; border-top: 0.5pt solid #5b9bd5 ; border-right: 0.5pt solid #5b9bd5 ; border-bottom: none ; border-left: none ; background: #fce4d6&quot;&gt;Yes&lt;/td&gt;&#xa; &lt;/tr&gt;&#xa; &lt;tr style=&quot;height: 15.0pt&quot;&gt;&#xa;  &lt;td height=&quot;20&quot; style=&quot;height: 15.0pt ; font-size: 11.0pt ; color: black ; font-weight: 400 ; text-decoration: none ; font-family: &amp;quot;calibri&amp;quot; , sans-serif ; border-top: 0.5pt solid #5b9bd5 ; border-right: none ; border-bottom: none ; border-left: 0.5pt solid #5b9bd5&quot;&gt;701.0102&lt;/td&gt;&#xa;  &lt;td style=&quot;font-size: 11.0pt ; color: black ; font-weight: 400 ; text-decoration: none ; font-family: &amp;quot;calibri&amp;quot; , sans-serif ; border-top: 0.5pt solid #5b9bd5 ; border-right: none ; border-bottom: none ; border-left: none&quot;&gt;4100&lt;/td&gt;&#xa;  &lt;td style=&quot;font-size: 11.0pt ; color: black ; font-weight: 400 ; text-decoration: none ; font-family: &amp;quot;calibri&amp;quot; , sans-serif ; border-top: 0.5pt solid #5b9bd5 ; border-right: none ; border-bottom: none ; border-left: none&quot;&gt;Watches&lt;/td&gt;&#xa;  &lt;td style=&quot;font-size: 11.0pt ; color: black ; font-weight: 400 ; text-decoration: none ; font-family: &amp;quot;calibri&amp;quot; , sans-serif ; border-top: 0.5pt solid #5b9bd5 ; border-right: none ; border-bottom: none ; border-left: none&quot;&gt;BTQ 1&lt;/td&gt;&#xa;  &lt;td style=&quot;font-size: 11.0pt ; color: black ; font-weight: 400 ; text-decoration: none ; font-family: &amp;quot;calibri&amp;quot; , sans-serif ; border-top: 0.5pt solid #5b9bd5 ; border-right: none ; border-bottom: none ; border-left: none&quot;&gt;700001&lt;/td&gt;&#xa;  &lt;td class=&quot;xl63&quot; style=&quot;font-size: 11.0pt ; color: black ; font-weight: 400 ; text-decoration: none ; font-family: &amp;quot;calibri&amp;quot; , sans-serif ; border-top: 0.5pt solid #5b9bd5 ; border-right: none ; border-bottom: none ; border-left: none ; background: #ffc000&quot;&gt;4100Gross&#xa;  sales before returns&lt;/td&gt;&#xa;  &lt;td class=&quot;xl64&quot; style=&quot;font-size: 11.0pt ; color: black ; font-weight: 400 ; text-decoration: none ; font-family: &amp;quot;calibri&amp;quot; , sans-serif ; border-top: 0.5pt solid #5b9bd5 ; border-right: 0.5pt solid #5b9bd5 ; border-bottom: none ; border-left: none ; background: #fce4d6&quot;&gt;Yes&lt;/td&gt;&#xa; &lt;/tr&gt;&#xa; &lt;tr style=&quot;height: 15.0pt&quot;&gt;&#xa;  &lt;td height=&quot;20&quot; style=&quot;height: 15.0pt ; font-size: 11.0pt ; color: black ; font-weight: 400 ; text-decoration: none ; font-family: &amp;quot;calibri&amp;quot; , sans-serif ; border-top: 0.5pt solid #5b9bd5 ; border-right: none ; border-bottom: none ; border-left: 0.5pt solid #5b9bd5&quot;&gt;701.0103&lt;/td&gt;&#xa;  &lt;td style=&quot;font-size: 11.0pt ; color: black ; font-weight: 400 ; text-decoration: none ; font-family: &amp;quot;calibri&amp;quot; , sans-serif ; border-top: 0.5pt solid #5b9bd5 ; border-right: none ; border-bottom: none ; border-left: none&quot;&gt;4100&lt;/td&gt;&#xa;  &lt;td style=&quot;font-size: 11.0pt ; color: black ; font-weight: 400 ; text-decoration: none ; font-family: &amp;quot;calibri&amp;quot; , sans-serif ; border-top: 0.5pt solid #5b9bd5 ; border-right: none ; border-bottom: none ; border-left: none&quot;&gt;FJ&lt;/td&gt;&#xa;  &lt;td style=&quot;font-size: 11.0pt ; color: black ; font-weight: 400 ; text-decoration: none ; font-family: &amp;quot;calibri&amp;quot; , sans-serif ; border-top: 0.5pt solid #5b9bd5 ; border-right: none ; border-bottom: none ; border-left: none&quot;&gt;BTQ 1&lt;/td&gt;&#xa;  &lt;td style=&quot;font-size: 11.0pt ; color: black ; font-weight: 400 ; text-decoration: none ; font-family: &amp;quot;calibri&amp;quot; , sans-serif ; border-top: 0.5pt solid #5b9bd5 ; border-right: none ; border-bottom: none ; border-left: none&quot;&gt;700001&lt;/td&gt;&#xa;  &lt;td class=&quot;xl63&quot; style=&quot;font-size: 11.0pt ; color: black ; font-weight: 400 ; text-decoration: none ; font-family: &amp;quot;calibri&amp;quot; , sans-serif ; border-top: 0.5pt solid #5b9bd5 ; border-right: none ; border-bottom: none ; border-left: none ; background: #ffc000&quot;&gt;4100Gross&#xa;  sales before returns&lt;/td&gt;&#xa;  &lt;td class=&quot;xl64&quot; style=&quot;font-size: 11.0pt ; color: black ; font-weight: 400 ; text-decoration: none ; font-family: &amp;quot;calibri&amp;quot; , sans-serif ; border-top: 0.5pt solid #5b9bd5 ; border-right: 0.5pt solid #5b9bd5 ; border-bottom: none ; border-left: none ; background: #fce4d6&quot;&gt;Yes&lt;/td&gt;&#xa; &lt;/tr&gt;&#xa; &lt;tr style=&quot;height: 15.0pt&quot;&gt;&#xa;  &lt;td height=&quot;20&quot; style=&quot;height: 15.0pt ; font-size: 11.0pt ; color: black ; font-weight: 400 ; text-decoration: none ; font-family: &amp;quot;calibri&amp;quot; , sans-serif ; border-top: 0.5pt solid #5b9bd5 ; border-right: none ; border-bottom: none ; border-left: 0.5pt solid #5b9bd5&quot;&gt;701.0103&lt;/td&gt;&#xa;  &lt;td style=&quot;font-size: 11.0pt ; color: black ; font-weight: 400 ; text-decoration: none ; font-family: &amp;quot;calibri&amp;quot; , sans-serif ; border-top: 0.5pt solid #5b9bd5 ; border-right: none ; border-bottom: none ; border-left: none&quot;&gt;4100&lt;/td&gt;&#xa;  &lt;td style=&quot;font-size: 11.0pt ; color: black ; font-weight: 400 ; text-decoration: none ; font-family: &amp;quot;calibri&amp;quot; , sans-serif ; border-top: 0.5pt solid #5b9bd5 ; border-right: none ; border-bottom: none ; border-left: none&quot;&gt;Watches&lt;/td&gt;&#xa;  &lt;td style=&quot;font-size: 11.0pt ; color: black ; font-weight: 400 ; text-decoration: none ; font-family: &amp;quot;calibri&amp;quot; , sans-serif ; border-top: 0.5pt solid #5b9bd5 ; border-right: none ; border-bottom: none ; border-left: none&quot;&gt;BTQ 1&lt;/td&gt;&#xa;  &lt;td style=&quot;font-size: 11.0pt ; color: black ; font-weight: 400 ; text-decoration: none ; font-family: &amp;quot;calibri&amp;quot; , sans-serif ; border-top: 0.5pt solid #5b9bd5 ; border-right: none ; border-bottom: none ; border-left: none&quot;&gt;700001&lt;/td&gt;&#xa;  &lt;td class=&quot;xl63&quot; style=&quot;font-size: 11.0pt ; color: black ; font-weight: 400 ; text-decoration: none ; font-family: &amp;quot;calibri&amp;quot; , sans-serif ; border-top: 0.5pt solid #5b9bd5 ; border-right: none ; border-bottom: none ; border-left: none ; background: #ffc000&quot;&gt;4100Gross&#xa;  sales before returns&lt;/td&gt;&#xa;  &lt;td class=&quot;xl64&quot; style=&quot;font-size: 11.0pt ; color: black ; font-weight: 400 ; text-decoration: none ; font-family: &amp;quot;calibri&amp;quot; , sans-serif ; border-top: 0.5pt solid #5b9bd5 ; border-right: 0.5pt solid #5b9bd5 ; border-bottom: none ; border-left: none ; background: #fce4d6&quot;&gt;Yes&lt;/td&gt;&#xa; &lt;/tr&gt;&#xa; &lt;tr style=&quot;height: 15.0pt&quot;&gt;&#xa;  &lt;td height=&quot;20&quot; style=&quot;height: 15.0pt ; font-size: 11.0pt ; color: black ; font-weight: 400 ; text-decoration: none ; font-family: &amp;quot;calibri&amp;quot; , sans-serif ; border-top: 0.5pt solid #5b9bd5 ; border-right: none ; border-bottom: none ; border-left: 0.5pt solid #5b9bd5&quot;&gt;701.0201&lt;/td&gt;&#xa;  &lt;td style=&quot;font-size: 11.0pt ; color: black ; font-weight: 400 ; text-decoration: none ; font-family: &amp;quot;calibri&amp;quot; , sans-serif ; border-top: 0.5pt solid #5b9bd5 ; border-right: none ; border-bottom: none ; border-left: none&quot;&gt;4100&lt;/td&gt;&#xa;  &lt;td style=&quot;font-size: 11.0pt ; color: black ; font-weight: 400 ; text-decoration: none ; font-family: &amp;quot;calibri&amp;quot; , sans-serif ; border-top: 0.5pt solid #5b9bd5 ; border-right: none ; border-bottom: none ; border-left: none&quot;&gt;F&amp;amp;B&lt;/td&gt;&#xa;  &lt;td style=&quot;font-size: 11.0pt ; color: black ; font-weight: 400 ; text-decoration: none ; font-family: &amp;quot;calibri&amp;quot; , sans-serif ; border-top: 0.5pt solid #5b9bd5 ; border-right: none ; border-bottom: none ; border-left: none&quot;&gt;UKR&lt;/td&gt;&#xa;  &lt;td style=&quot;font-size: 11.0pt ; color: black ; font-weight: 400 ; text-decoration: none ; font-family: &amp;quot;calibri&amp;quot; , sans-serif ; border-top: 0.5pt solid #5b9bd5 ; border-right: none ; border-bottom: none ; border-left: none&quot;&gt;700001&lt;/td&gt;&#xa;  &lt;td class=&quot;xl63&quot; style=&quot;font-size: 11.0pt ; color: black ; font-weight: 400 ; text-decoration: none ; font-family: &amp;quot;calibri&amp;quot; , sans-serif ; border-top: 0.5pt solid #5b9bd5 ; border-right: none ; border-bottom: none ; border-left: none ; background: #ffc000&quot;&gt;4100Gross&#xa;  sales before returns&lt;/td&gt;&#xa;  &lt;td class=&quot;xl64&quot; style=&quot;font-size: 11.0pt ; color: black ; font-weight: 400 ; text-decoration: none ; font-family: &amp;quot;calibri&amp;quot; , sans-serif ; border-top: 0.5pt solid #5b9bd5 ; border-right: 0.5pt solid #5b9bd5 ; border-bottom: none ; border-left: none ; background: #fce4d6&quot;&gt;Yes&lt;/td&gt;&#xa; &lt;/tr&gt;&#xa; &lt;tr style=&quot;height: 15.0pt&quot;&gt;&#xa;  &lt;td height=&quot;20&quot; style=&quot;height: 15.0pt ; font-size: 11.0pt ; color: black ; font-weight: 400 ; text-decoration: none ; font-family: &amp;quot;calibri&amp;quot; , sans-serif ; border-top: 0.5pt solid #5b9bd5 ; border-right: none ; border-bottom: none ; border-left: 0.5pt solid #5b9bd5&quot;&gt;701.0201&lt;/td&gt;&#xa;  &lt;td style=&quot;font-size: 11.0pt ; color: black ; font-weight: 400 ; text-decoration: none ; font-family: &amp;quot;calibri&amp;quot; , sans-serif ; border-top: 0.5pt solid #5b9bd5 ; border-right: none ; border-bottom: none ; border-left: none&quot;&gt;4100&lt;/td&gt;&#xa;  &lt;td style=&quot;font-size: 11.0pt ; color: black ; font-weight: 400 ; text-decoration: none ; font-family: &amp;quot;calibri&amp;quot; , sans-serif ; border-top: 0.5pt solid #5b9bd5 ; border-right: none ; border-bottom: none ; border-left: none&quot;&gt;Fashion&lt;/td&gt;&#xa;  &lt;td style=&quot;font-size: 11.0pt ; color: black ; font-weight: 400 ; text-decoration: none ; font-family: &amp;quot;calibri&amp;quot; , sans-serif ; border-top: 0.5pt solid #5b9bd5 ; border-right: none ; border-bottom: none ; border-left: none&quot;&gt;BTQ 1&lt;/td&gt;&#xa;  &lt;td style=&quot;font-size: 11.0pt ; color: black ; font-weight: 400 ; text-decoration: none ; font-family: &amp;quot;calibri&amp;quot; , sans-serif ; border-top: 0.5pt solid #5b9bd5 ; border-right: none ; border-bottom: none ; border-left: none&quot;&gt;700001&lt;/td&gt;&#xa;  &lt;td class=&quot;xl63&quot; style=&quot;font-size: 11.0pt ; color: black ; font-weight: 400 ; text-decoration: none ; font-family: &amp;quot;calibri&amp;quot; , sans-serif ; border-top: 0.5pt solid #5b9bd5 ; border-right: none ; border-bottom: none ; border-left: none ; background: #ffc000&quot;&gt;4100Gross&#xa;  sales before returns&lt;/td&gt;&#xa;  &lt;td class=&quot;xl64&quot; style=&quot;font-size: 11.0pt ; color: black ; font-weight: 400 ; text-decoration: none ; font-family: &amp;quot;calibri&amp;quot; , sans-serif ; border-top: 0.5pt solid #5b9bd5 ; border-right: 0.5pt solid #5b9bd5 ; border-bottom: none ; border-left: none ; background: #fce4d6&quot;&gt;Yes&lt;/td&gt;&#xa; &lt;/tr&gt;&#xa; &lt;tr style=&quot;height: 15.0pt&quot;&gt;&#xa;  &lt;td height=&quot;20&quot; style=&quot;height: 15.0pt ; font-size: 11.0pt ; color: black ; font-weight: 400 ; text-decoration: none ; font-family: &amp;quot;calibri&amp;quot; , sans-serif ; border-top: 0.5pt solid #5b9bd5 ; border-right: none ; border-bottom: none ; border-left: 0.5pt solid #5b9bd5&quot;&gt;701.0201&lt;/td&gt;&#xa;  &lt;td style=&quot;font-size: 11.0pt ; color: black ; font-weight: 400 ; text-decoration: none ; font-family: &amp;quot;calibri&amp;quot; , sans-serif ; border-top: 0.5pt solid #5b9bd5 ; border-right: none ; border-bottom: none ; border-left: none&quot;&gt;4100&lt;/td&gt;&#xa;  &lt;td style=&quot;font-size: 11.0pt ; color: black ; font-weight: 400 ; text-decoration: none ; font-family: &amp;quot;calibri&amp;quot; , sans-serif ; border-top: 0.5pt solid #5b9bd5 ; border-right: none ; border-bottom: none ; border-left: none&quot;&gt;FJ&lt;/td&gt;&#xa;  &lt;td style=&quot;font-size: 11.0pt ; color: black ; font-weight: 400 ; text-decoration: none ; font-family: &amp;quot;calibri&amp;quot; , sans-serif ; border-top: 0.5pt solid #5b9bd5 ; border-right: none ; border-bottom: none ; border-left: none&quot;&gt;BTQ 1&lt;/td&gt;&#xa;  &lt;td style=&quot;font-size: 11.0pt ; color: black ; font-weight: 400 ; text-decoration: none ; font-family: &amp;quot;calibri&amp;quot; , sans-serif ; border-top: 0.5pt solid #5b9bd5 ; border-right: none ; border-bottom: none ; border-left: none&quot;&gt;700001&lt;/td&gt;&#xa;  &lt;td class=&quot;xl63&quot; style=&quot;font-size: 11.0pt ; color: black ; font-weight: 400 ; text-decoration: none ; font-family: &amp;quot;calibri&amp;quot; , sans-serif ; border-top: 0.5pt solid #5b9bd5 ; border-right: none ; border-bottom: none ; border-left: none ; background: #ffc000&quot;&gt;4100Gross&#xa;  sales before returns&lt;/td&gt;&#xa;  &lt;td class=&quot;xl64&quot; style=&quot;font-size: 11.0pt ; color: black ; font-weight: 400 ; text-decoration: none ; font-family: &amp;quot;calibri&amp;quot; , sans-serif ; border-top: 0.5pt solid #5b9bd5 ; border-right: 0.5pt solid #5b9bd5 ; border-bottom: none ; border-left: none ; background: #fce4d6&quot;&gt;Yes&lt;/td&gt;&#xa; &lt;/tr&gt;&#xa; &lt;tr style=&quot;height: 15.0pt&quot;&gt;&#xa;  &lt;td height=&quot;20&quot; style=&quot;height: 15.0pt ; font-size: 11.0pt ; color: black ; font-weight: 400 ; text-decoration: none ; font-family: &amp;quot;calibri&amp;quot; , sans-serif ; border-top: 0.5pt solid #5b9bd5 ; border-right: none ; border-bottom: none ; border-left: 0.5pt solid #5b9bd5&quot;&gt;701.0201&lt;/td&gt;&#xa;  &lt;td style=&quot;font-size: 11.0pt ; color: black ; font-weight: 400 ; text-decoration: none ; font-family: &amp;quot;calibri&amp;quot; , sans-serif ; border-top: 0.5pt solid #5b9bd5 ; border-right: none ; border-bottom: none ; border-left: none&quot;&gt;4100&lt;/td&gt;&#xa;  &lt;td style=&quot;font-size: 11.0pt ; color: black ; font-weight: 400 ; text-decoration: none ; font-family: &amp;quot;calibri&amp;quot; , sans-serif ; border-top: 0.5pt solid #5b9bd5 ; border-right: none ; border-bottom: none ; border-left: none&quot;&gt;Watches&lt;/td&gt;&#xa;  &lt;td style=&quot;font-size: 11.0pt ; color: black ; font-weight: 400 ; text-decoration: none ; font-family: &amp;quot;calibri&amp;quot; , sans-serif ; border-top: 0.5pt solid #5b9bd5 ; border-right: none ; border-bottom: none ; border-left: none&quot;&gt;BTQ 1&lt;/td&gt;&#xa;  &lt;td style=&quot;font-size: 11.0pt ; color: black ; font-weight: 400 ; text-decoration: none ; font-family: &amp;quot;calibri&amp;quot; , sans-serif ; border-top: 0.5pt solid #5b9bd5 ; border-right: none ; border-bottom: none ; border-left: none&quot;&gt;700001&lt;/td&gt;&#xa;  &lt;td class=&quot;xl63&quot; style=&quot;font-size: 11.0pt ; color: black ; font-weight: 400 ; text-decoration: none ; font-family: &amp;quot;calibri&amp;quot; , sans-serif ; border-top: 0.5pt solid #5b9bd5 ; border-right: none ; border-bottom: none ; border-left: none ; background: #ffc000&quot;&gt;4100Gross&#xa;  sales before returns&lt;/td&gt;&#xa;  &lt;td class=&quot;xl64&quot; style=&quot;font-size: 11.0pt ; color: black ; font-weight: 400 ; text-decoration: none ; font-family: &amp;quot;calibri&amp;quot; , sans-serif ; border-top: 0.5pt solid #5b9bd5 ; border-right: 0.5pt solid #5b9bd5 ; border-bottom: none ; border-left: none ; background: #fce4d6&quot;&gt;Yes&lt;/td&gt;&#xa; &lt;/tr&gt;&#xa; &lt;tr style=&quot;height: 15.0pt&quot;&gt;&#xa;  &lt;td height=&quot;20&quot; style=&quot;height: 15.0pt ; font-size: 11.0pt ; color: black ; font-weight: 400 ; text-decoration: none ; font-family: &amp;quot;calibri&amp;quot; , sans-serif ; border-top: 0.5pt solid #5b9bd5 ; border-right: none ; border-bottom: none ; border-left: 0.5pt solid #5b9bd5&quot;&gt;701.0202&lt;/td&gt;&#xa;  &lt;td style=&quot;font-size: 11.0pt ; color: black ; font-weight: 400 ; text-decoration: none ; font-family: &amp;quot;calibri&amp;quot; , sans-serif ; border-top: 0.5pt solid #5b9bd5 ; border-right: none ; border-bottom: none ; border-left: none&quot;&gt;4100&lt;/td&gt;&#xa;  &lt;td style=&quot;font-size: 11.0pt ; color: black ; font-weight: 400 ; text-decoration: none ; font-family: &amp;quot;calibri&amp;quot; , sans-serif ; border-top: 0.5pt solid #5b9bd5 ; border-right: none ; border-bottom: none ; border-left: none&quot;&gt;F&amp;amp;B&lt;/td&gt;&#xa;  &lt;td style=&quot;font-size: 11.0pt ; color: black ; font-weight: 400 ; text-decoration: none ; font-family: &amp;quot;calibri&amp;quot; , sans-serif ; border-top: 0.5pt solid #5b9bd5 ; border-right: none ; border-bottom: none ; border-left: none&quot;&gt;UKR&lt;/td&gt;&#xa;  &lt;td style=&quot;font-size: 11.0pt ; color: black ; font-weight: 400 ; text-decoration: none ; font-family: &amp;quot;calibri&amp;quot; , sans-serif ; border-top: 0.5pt solid #5b9bd5 ; border-right: none ; border-bottom: none ; border-left: none&quot;&gt;700001&lt;/td&gt;&#xa;  &lt;td class=&quot;xl63&quot; style=&quot;font-size: 11.0pt ; color: black ; font-weight: 400 ; text-decoration: none ; font-family: &amp;quot;calibri&amp;quot; , sans-serif ; border-top: 0.5pt solid #5b9bd5 ; border-right: none ; border-bottom: none ; border-left: none ; background: #ffc000&quot;&gt;4100Gross&#xa;  sales before returns&lt;/td&gt;&#xa;  &lt;td class=&quot;xl64&quot; style=&quot;font-size: 11.0pt ; color: black ; font-weight: 400 ; text-decoration: none ; font-family: &amp;quot;calibri&amp;quot; , sans-serif ; border-top: 0.5pt solid #5b9bd5 ; border-right: 0.5pt solid #5b9bd5 ; border-bottom: none ; border-left: none ; background: #fce4d6&quot;&gt;Yes&lt;/td&gt;&#xa; &lt;/tr&gt;&#xa; &lt;tr style=&quot;height: 15.0pt&quot;&gt;&#xa;  &lt;td height=&quot;20&quot; style=&quot;height: 15.0pt ; font-size: 11.0pt ; color: black ; font-weight: 400 ; text-decoration: none ; font-family: &amp;quot;calibri&amp;quot; , sans-serif ; border-top: 0.5pt solid #5b9bd5 ; border-right: none ; border-bottom: none ; border-left: 0.5pt solid #5b9bd5&quot;&gt;701.0202&lt;/td&gt;&#xa;  &lt;td style=&quot;font-size: 11.0pt ; color: black ; font-weight: 400 ; text-decoration: none ; font-family: &amp;quot;calibri&amp;quot; , sans-serif ; border-top: 0.5pt solid #5b9bd5 ; border-right: none ; border-bottom: none ; border-left: none&quot;&gt;4100&lt;/td&gt;&#xa;  &lt;td style=&quot;font-size: 11.0pt ; color: black ; font-weight: 400 ; text-decoration: none ; font-family: &amp;quot;calibri&amp;quot; , sans-serif ; border-top: 0.5pt solid #5b9bd5 ; border-right: none ; border-bottom: none ; border-left: none&quot;&gt;Fashion&lt;/td&gt;&#xa;  &lt;td style=&quot;font-size: 11.0pt ; color: black ; font-weight: 400 ; text-decoration: none ; font-family: &amp;quot;calibri&amp;quot; , sans-serif ; border-top: 0.5pt solid #5b9bd5 ; border-right: none ; border-bottom: none ; border-left: none&quot;&gt;BTQ 1&lt;/td&gt;&#xa;  &lt;td style=&quot;font-size: 11.0pt ; color: black ; font-weight: 400 ; text-decoration: none ; font-family: &amp;quot;calibri&amp;quot; , sans-serif ; border-top: 0.5pt solid #5b9bd5 ; border-right: none ; border-bottom: none ; border-left: none&quot;&gt;700001&lt;/td&gt;&#xa;  &lt;td class=&quot;xl63&quot; style=&quot;font-size: 11.0pt ; color: black ; font-weight: 400 ; text-decoration: none ; font-family: &amp;quot;calibri&amp;quot; , sans-serif ; border-top: 0.5pt solid #5b9bd5 ; border-right: none ; border-bottom: none ; border-left: none ; background: #ffc000&quot;&gt;4100Gross&#xa;  sales before returns&lt;/td&gt;&#xa;  &lt;td class=&quot;xl64&quot; style=&quot;font-size: 11.0pt ; color: black ; font-weight: 400 ; text-decoration: none ; font-family: &amp;quot;calibri&amp;quot; , sans-serif ; border-top: 0.5pt solid #5b9bd5 ; border-right: 0.5pt solid #5b9bd5 ; border-bottom: none ; border-left: none ; background: #fce4d6&quot;&gt;Yes&lt;/td&gt;&#xa; &lt;/tr&gt;&#xa; &lt;tr style=&quot;height: 15.0pt&quot;&gt;&#xa;  &lt;td height=&quot;20&quot; style=&quot;height: 15.0pt ; font-size: 11.0pt ; color: black ; font-weight: 400 ; text-decoration: none ; font-family: &amp;quot;calibri&amp;quot; , sans-serif ; border-top: 0.5pt solid #5b9bd5 ; border-right: none ; border-bottom: none ; border-left: 0.5pt solid #5b9bd5&quot;&gt;701.0202&lt;/td&gt;&#xa;  &lt;td style=&quot;font-size: 11.0pt ; color: black ; font-weight: 400 ; text-decoration: none ; font-family: &amp;quot;calibri&amp;quot; , sans-serif ; border-top: 0.5pt solid #5b9bd5 ; border-right: none ; border-bottom: none ; border-left: none&quot;&gt;4100&lt;/td&gt;&#xa;  &lt;td style=&quot;font-size: 11.0pt ; color: black ; font-weight: 400 ; text-decoration: none ; font-family: &amp;quot;calibri&amp;quot; , sans-serif ; border-top: 0.5pt solid #5b9bd5 ; border-right: none ; border-bottom: none ; border-left: none&quot;&gt;FJ&lt;/td&gt;&#xa;  &lt;td style=&quot;font-size: 11.0pt ; color: black ; font-weight: 400 ; text-decoration: none ; font-family: &amp;quot;calibri&amp;quot; , sans-serif ; border-top: 0.5pt solid #5b9bd5 ; border-right: none ; border-bottom: none ; border-left: none&quot;&gt;BTQ 1&lt;/td&gt;&#xa;  &lt;td style=&quot;font-size: 11.0pt ; color: black ; font-weight: 400 ; text-decoration: none ; font-family: &amp;quot;calibri&amp;quot; , sans-serif ; border-top: 0.5pt solid #5b9bd5 ; border-right: none ; border-bottom: none ; border-left: none&quot;&gt;700001&lt;/td&gt;&#xa;  &lt;td class=&quot;xl63&quot; style=&quot;font-size: 11.0pt ; color: black ; font-weight: 400 ; text-decoration: none ; font-family: &amp;quot;calibri&amp;quot; , sans-serif ; border-top: 0.5pt solid #5b9bd5 ; border-right: none ; border-bottom: none ; border-left: none ; background: #ffc000&quot;&gt;4100Gross&#xa;  sales before returns&lt;/td&gt;&#xa;  &lt;td class=&quot;xl64&quot; style=&quot;font-size: 11.0pt ; color: black ; font-weight: 400 ; text-decoration: none ; font-family: &amp;quot;calibri&amp;quot; , sans-serif ; border-top: 0.5pt solid #5b9bd5 ; border-right: 0.5pt solid #5b9bd5 ; border-bottom: none ; border-left: none ; background: #fce4d6&quot;&gt;Yes&lt;/td&gt;&#xa; &lt;/tr&gt;&#xa; &lt;tr style=&quot;height: 15.0pt&quot;&gt;&#xa;  &lt;td height=&quot;20&quot; style=&quot;height: 15.0pt ; font-size: 11.0pt ; color: black ; font-weight: 400 ; text-decoration: none ; font-family: &amp;quot;calibri&amp;quot; , sans-serif ; border-top: 0.5pt solid #5b9bd5 ; border-right: none ; border-bottom: none ; border-left: 0.5pt solid #5b9bd5&quot;&gt;701.0202&lt;/td&gt;&#xa;  &lt;td style=&quot;font-size: 11.0pt ; color: black ; font-weight: 400 ; text-decoration: none ; font-family: &amp;quot;calibri&amp;quot; , sans-serif ; border-top: 0.5pt solid #5b9bd5 ; border-right: none ; border-bottom: none ; border-left: none&quot;&gt;4100&lt;/td&gt;&#xa;  &lt;td style=&quot;font-size: 11.0pt ; color: black ; font-weight: 400 ; text-decoration: none ; font-family: &amp;quot;calibri&amp;quot; , sans-serif ; border-top: 0.5pt solid #5b9bd5 ; border-right: none ; border-bottom: none ; border-left: none&quot;&gt;Watches&lt;/td&gt;&#xa;  &lt;td style=&quot;font-size: 11.0pt ; color: black ; font-weight: 400 ; text-decoration: none ; font-family: &amp;quot;calibri&amp;quot; , sans-serif ; border-top: 0.5pt solid #5b9bd5 ; border-right: none ; border-bottom: none ; border-left: none&quot;&gt;BTQ 1&lt;/td&gt;&#xa;  &lt;td style=&quot;font-size: 11.0pt ; color: black ; font-weight: 400 ; text-decoration: none ; font-family: &amp;quot;calibri&amp;quot; , sans-serif ; border-top: 0.5pt solid #5b9bd5 ; border-right: none ; border-bottom: none ; border-left: none&quot;&gt;700001&lt;/td&gt;&#xa;  &lt;td class=&quot;xl63&quot; style=&quot;font-size: 11.0pt ; color: black ; font-weight: 400 ; text-decoration: none ; font-family: &amp;quot;calibri&amp;quot; , sans-serif ; border-top: 0.5pt solid #5b9bd5 ; border-right: none ; border-bottom: none ; border-left: none ; background: #ffc000&quot;&gt;4100Gross&#xa;  sales before returns&lt;/td&gt;&#xa;  &lt;td class=&quot;xl64&quot; style=&quot;font-size: 11.0pt ; color: black ; font-weight: 400 ; text-decoration: none ; font-family: &amp;quot;calibri&amp;quot; , sans-serif ; border-top: 0.5pt solid #5b9bd5 ; border-right: 0.5pt solid #5b9bd5 ; border-bottom: none ; border-left: none ; background: #fce4d6&quot;&gt;Yes&lt;/td&gt;&#xa; &lt;/tr&gt;&#xa; &lt;tr style=&quot;height: 15.0pt&quot;&gt;&#xa;  &lt;td height=&quot;20&quot; style=&quot;height: 15.0pt ; font-size: 11.0pt ; color: black ; font-weight: 400 ; text-decoration: none ; font-family: &amp;quot;calibri&amp;quot; , sans-serif ; border-top: 0.5pt solid #5b9bd5 ; border-right: none ; border-bottom: none ; border-left: 0.5pt solid #5b9bd5&quot;&gt;701.0803&lt;/td&gt;&#xa;  &lt;td style=&quot;font-size: 11.0pt ; color: black ; font-weight: 400 ; text-decoration: none ; font-family: &amp;quot;calibri&amp;quot; , sans-serif ; border-top: 0.5pt solid #5b9bd5 ; border-right: none ; border-bottom: none ; border-left: none&quot;&gt;4100&lt;/td&gt;&#xa;  &lt;td style=&quot;font-size: 11.0pt ; color: black ; font-weight: 400 ; text-decoration: none ; font-family: &amp;quot;calibri&amp;quot; , sans-serif ; border-top: 0.5pt solid #5b9bd5 ; border-right: none ; border-bottom: none ; border-left: none&quot;&gt;FJ&lt;/td&gt;&#xa;  &lt;td style=&quot;font-size: 11.0pt ; color: black ; font-weight: 400 ; text-decoration: none ; font-family: &amp;quot;calibri&amp;quot; , sans-serif ; border-top: 0.5pt solid #5b9bd5 ; border-right: none ; border-bottom: none ; border-left: none&quot;&gt;BTQ 1&lt;/td&gt;&#xa;  &lt;td style=&quot;font-size: 11.0pt ; color: black ; font-weight: 400 ; text-decoration: none ; font-family: &amp;quot;calibri&amp;quot; , sans-serif ; border-top: 0.5pt solid #5b9bd5 ; border-right: none ; border-bottom: none ; border-left: none&quot;&gt;700001&lt;/td&gt;&#xa;  &lt;td class=&quot;xl63&quot; style=&quot;font-size: 11.0pt ; color: black ; font-weight: 400 ; text-decoration: none ; font-family: &amp;quot;calibri&amp;quot; , sans-serif ; border-top: 0.5pt solid #5b9bd5 ; border-right: none ; border-bottom: none ; border-left: none ; background: #ffc000&quot;&gt;4100Gross&#xa;  sales before returns&lt;/td&gt;&#xa;  &lt;td class=&quot;xl64&quot; style=&quot;font-size: 11.0pt ; color: black ; font-weight: 400 ; text-decoration: none ; font-family: &amp;quot;calibri&amp;quot; , sans-serif ; border-top: 0.5pt solid #5b9bd5 ; border-right: 0.5pt solid #5b9bd5 ; border-bottom: none ; border-left: none ; background: #fce4d6&quot;&gt;Yes&lt;/td&gt;&#xa; &lt;/tr&gt;&#xa; &lt;tr style=&quot;height: 15.0pt&quot;&gt;&#xa;  &lt;td height=&quot;20&quot; style=&quot;height: 15.0pt ; font-size: 11.0pt ; color: black ; font-weight: 400 ; text-decoration: none ; font-family: &amp;quot;calibri&amp;quot; , sans-serif ; border-top: 0.5pt solid #5b9bd5 ; border-right: none ; border-bottom: none ; border-left: 0.5pt solid #5b9bd5&quot;&gt;701.0803&lt;/td&gt;&#xa;  &lt;td style=&quot;font-size: 11.0pt ; color: black ; font-weight: 400 ; text-decoration: none ; font-family: &amp;quot;calibri&amp;quot; , sans-serif ; border-top: 0.5pt solid #5b9bd5 ; border-right: none ; border-bottom: none ; border-left: none&quot;&gt;4100&lt;/td&gt;&#xa;  &lt;td style=&quot;font-size: 11.0pt ; color: black ; font-weight: 400 ; text-decoration: none ; font-family: &amp;quot;calibri&amp;quot; , sans-serif ; border-top: 0.5pt solid #5b9bd5 ; border-right: none ; border-bottom: none ; border-left: none&quot;&gt;Watches&lt;/td&gt;&#xa;  &lt;td style=&quot;font-size: 11.0pt ; color: black ; font-weight: 400 ; text-decoration: none ; font-family: &amp;quot;calibri&amp;quot; , sans-serif ; border-top: 0.5pt solid #5b9bd5 ; border-right: none ; border-bottom: none ; border-left: none&quot;&gt;BTQ 1&lt;/td&gt;&#xa;  &lt;td style=&quot;font-size: 11.0pt ; color: black ; font-weight: 400 ; text-decoration: none ; font-family: &amp;quot;calibri&amp;quot; , sans-serif ; border-top: 0.5pt solid #5b9bd5 ; border-right: none ; border-bottom: none ; border-left: none&quot;&gt;700001&lt;/td&gt;&#xa;  &lt;td class=&quot;xl63&quot; style=&quot;font-size: 11.0pt ; color: black ; font-weight: 400 ; text-decoration: none ; font-family: &amp;quot;calibri&amp;quot; , sans-serif ; border-top: 0.5pt solid #5b9bd5 ; border-right: none ; border-bottom: none ; border-left: none ; background: #ffc000&quot;&gt;4100Gross&#xa;  sales before returns&lt;/td&gt;&#xa;  &lt;td class=&quot;xl64&quot; style=&quot;font-size: 11.0pt ; color: black ; font-weight: 400 ; text-decoration: none ; font-family: &amp;quot;calibri&amp;quot; , sans-serif ; border-top: 0.5pt solid #5b9bd5 ; border-right: 0.5pt solid #5b9bd5 ; border-bottom: none ; border-left: none ; background: #fce4d6&quot;&gt;Yes&lt;/td&gt;&#xa; &lt;/tr&gt;&#xa; &lt;tr style=&quot;height: 15.0pt&quot;&gt;&#xa;  &lt;td height=&quot;20&quot; style=&quot;height: 15.0pt ; font-size: 11.0pt ; color: black ; font-weight: 400 ; text-decoration: none ; font-family: &amp;quot;calibri&amp;quot; , sans-serif ; border-top: 0.5pt solid #5b9bd5 ; border-right: none ; border-bottom: none ; border-left: 0.5pt solid #5b9bd5&quot;&gt;Z.701.0101&lt;/td&gt;&#xa;  &lt;td style=&quot;font-size: 11.0pt ; color: black ; font-weight: 400 ; text-decoration: none ; font-family: &amp;quot;calibri&amp;quot; , sans-serif ; border-top: 0.5pt solid #5b9bd5 ; border-right: none ; border-bottom: none ; border-left: none&quot;&gt;4100&lt;/td&gt;&#xa;  &lt;td style=&quot;font-size: 11.0pt ; color: black ; font-weight: 400 ; text-decoration: none ; font-family: &amp;quot;calibri&amp;quot; , sans-serif ; border-top: 0.5pt solid #5b9bd5 ; border-right: none ; border-bottom: none ; border-left: none&quot;&gt;F&amp;amp;B&lt;/td&gt;&#xa;  &lt;td style=&quot;font-size: 11.0pt ; color: black ; font-weight: 400 ; text-decoration: none ; font-family: &amp;quot;calibri&amp;quot; , sans-serif ; border-top: 0.5pt solid #5b9bd5 ; border-right: none ; border-bottom: none ; border-left: none&quot;&gt;UKR&lt;/td&gt;&#xa;  &lt;td style=&quot;font-size: 11.0pt ; color: black ; font-weight: 400 ; text-decoration: none ; font-family: &amp;quot;calibri&amp;quot; , sans-serif ; border-top: 0.5pt solid #5b9bd5 ; border-right: none ; border-bottom: none ; border-left: none&quot;&gt;700001&lt;/td&gt;&#xa;  &lt;td class=&quot;xl63&quot; style=&quot;font-size: 11.0pt ; color: black ; font-weight: 400 ; text-decoration: none ; font-family: &amp;quot;calibri&amp;quot; , sans-serif ; border-top: 0.5pt solid #5b9bd5 ; border-right: none ; border-bottom: none ; border-left: none ; background: #ffc000&quot;&gt;4100Gross&#xa;  sales before returns&lt;/td&gt;&#xa;  &lt;td class=&quot;xl64&quot; style=&quot;font-size: 11.0pt ; color: black ; font-weight: 400 ; text-decoration: none ; font-family: &amp;quot;calibri&amp;quot; , sans-serif ; border-top: 0.5pt solid #5b9bd5 ; border-right: 0.5pt solid #5b9bd5 ; border-bottom: none ; border-left: none ; background: #fce4d6&quot;&gt;Yes&lt;/td&gt;&#xa; &lt;/tr&gt;&#xa; &lt;tr style=&quot;height: 15.0pt&quot;&gt;&#xa;  &lt;td height=&quot;20&quot; style=&quot;height: 15.0pt ; font-size: 11.0pt ; color: black ; font-weight: 400 ; text-decoration: none ; font-family: &amp;quot;calibri&amp;quot; , sans-serif ; border-top: 0.5pt solid #5b9bd5 ; border-right: none ; border-bottom: none ; border-left: 0.5pt solid #5b9bd5&quot;&gt;Z.701.0101&lt;/td&gt;&#xa;  &lt;td style=&quot;font-size: 11.0pt ; color: black ; font-weight: 400 ; text-decoration: none ; font-family: &amp;quot;calibri&amp;quot; , sans-serif ; border-top: 0.5pt solid #5b9bd5 ; border-right: none ; border-bottom: none ; border-left: none&quot;&gt;4100&lt;/td&gt;&#xa;  &lt;td style=&quot;font-size: 11.0pt ; color: black ; font-weight: 400 ; text-decoration: none ; font-family: &amp;quot;calibri&amp;quot; , sans-serif ; border-top: 0.5pt solid #5b9bd5 ; border-right: none ; border-bottom: none ; border-left: none&quot;&gt;Fashion&lt;/td&gt;&#xa;  &lt;td style=&quot;font-size: 11.0pt ; color: black ; font-weight: 400 ; text-decoration: none ; font-family: &amp;quot;calibri&amp;quot; , sans-serif ; border-top: 0.5pt solid #5b9bd5 ; border-right: none ; border-bottom: none ; border-left: none&quot;&gt;BTQ 1&lt;/td&gt;&#xa;  &lt;td style=&quot;font-size: 11.0pt ; color: black ; font-weight: 400 ; text-decoration: none ; font-family: &amp;quot;calibri&amp;quot; , sans-serif ; border-top: 0.5pt solid #5b9bd5 ; border-right: none ; border-bottom: none ; border-left: none&quot;&gt;700001&lt;/td&gt;&#xa;  &lt;td class=&quot;xl63&quot; style=&quot;font-size: 11.0pt ; color: black ; font-weight: 400 ; text-decoration: none ; font-family: &amp;quot;calibri&amp;quot; , sans-serif ; border-top: 0.5pt solid #5b9bd5 ; border-right: none ; border-bottom: none ; border-left: none ; background: #ffc000&quot;&gt;4100Gross&#xa;  sales before returns&lt;/td&gt;&#xa;  &lt;td class=&quot;xl64&quot; style=&quot;font-size: 11.0pt ; color: black ; font-weight: 400 ; text-decoration: none ; font-family: &amp;quot;calibri&amp;quot; , sans-serif ; border-top: 0.5pt solid #5b9bd5 ; border-right: 0.5pt solid #5b9bd5 ; border-bottom: none ; border-left: none ; background: #fce4d6&quot;&gt;Yes&lt;/td&gt;&#xa; &lt;/tr&gt;&#xa; &lt;tr style=&quot;height: 15.0pt&quot;&gt;&#xa;  &lt;td height=&quot;20&quot; style=&quot;height: 15.0pt ; font-size: 11.0pt ; color: black ; font-weight: 400 ; text-decoration: none ; font-family: &amp;quot;calibri&amp;quot; , sans-serif ; border-top: 0.5pt solid #5b9bd5 ; border-right: none ; border-bottom: none ; border-left: 0.5pt solid #5b9bd5&quot;&gt;Z.701.0101&lt;/td&gt;&#xa;  &lt;td style=&quot;font-size: 11.0pt ; color: black ; font-weight: 400 ; text-decoration: none ; font-family: &amp;quot;calibri&amp;quot; , sans-serif ; border-top: 0.5pt solid #5b9bd5 ; border-right: none ; border-bottom: none ; border-left: none&quot;&gt;4100&lt;/td&gt;&#xa;  &lt;td style=&quot;font-size: 11.0pt ; color: black ; font-weight: 400 ; text-decoration: none ; font-family: &amp;quot;calibri&amp;quot; , sans-serif ; border-top: 0.5pt solid #5b9bd5 ; border-right: none ; border-bottom: none ; border-left: none&quot;&gt;FJ&lt;/td&gt;&#xa;  &lt;td style=&quot;font-size: 11.0pt ; color: black ; font-weight: 400 ; text-decoration: none ; font-family: &amp;quot;calibri&amp;quot; , sans-serif ; border-top: 0.5pt solid #5b9bd5 ; border-right: none ; border-bottom: none ; border-left: none&quot;&gt;BTQ 1&lt;/td&gt;&#xa;  &lt;td style=&quot;font-size: 11.0pt ; color: black ; font-weight: 400 ; text-decoration: none ; font-family: &amp;quot;calibri&amp;quot; , sans-serif ; border-top: 0.5pt solid #5b9bd5 ; border-right: none ; border-bottom: none ; border-left: none&quot;&gt;700001&lt;/td&gt;&#xa;  &lt;td class=&quot;xl63&quot; style=&quot;font-size: 11.0pt ; color: black ; font-weight: 400 ; text-decoration: none ; font-family: &amp;quot;calibri&amp;quot; , sans-serif ; border-top: 0.5pt solid #5b9bd5 ; border-right: none ; border-bottom: none ; border-left: none ; background: #ffc000&quot;&gt;4100Gross&#xa;  sales before returns&lt;/td&gt;&#xa;  &lt;td class=&quot;xl64&quot; style=&quot;font-size: 11.0pt ; color: black ; font-weight: 400 ; text-decoration: none ; font-family: &amp;quot;calibri&amp;quot; , sans-serif ; border-top: 0.5pt solid #5b9bd5 ; border-right: 0.5pt solid #5b9bd5 ; border-bottom: none ; border-left: none ; background: #fce4d6&quot;&gt;Yes&lt;/td&gt;&#xa; &lt;/tr&gt;&#xa; &lt;tr style=&quot;height: 15.0pt&quot;&gt;&#xa;  &lt;td height=&quot;20&quot; style=&quot;height: 15.0pt ; font-size: 11.0pt ; color: black ; font-weight: 400 ; text-decoration: none ; font-family: &amp;quot;calibri&amp;quot; , sans-serif ; border-top: 0.5pt solid #5b9bd5 ; border-right: none ; border-bottom: none ; border-left: 0.5pt solid #5b9bd5&quot;&gt;Z.701.0101&lt;/td&gt;&#xa;  &lt;td style=&quot;font-size: 11.0pt ; color: black ; font-weight: 400 ; text-decoration: none ; font-family: &amp;quot;calibri&amp;quot; , sans-serif ; border-top: 0.5pt solid #5b9bd5 ; border-right: none ; border-bottom: none ; border-left: none&quot;&gt;4100&lt;/td&gt;&#xa;  &lt;td style=&quot;font-size: 11.0pt ; color: black ; font-weight: 400 ; text-decoration: none ; font-family: &amp;quot;calibri&amp;quot; , sans-serif ; border-top: 0.5pt solid #5b9bd5 ; border-right: none ; border-bottom: none ; border-left: none&quot;&gt;Watches&lt;/td&gt;&#xa;  &lt;td style=&quot;font-size: 11.0pt ; color: black ; font-weight: 400 ; text-decoration: none ; font-family: &amp;quot;calibri&amp;quot; , sans-serif ; border-top: 0.5pt solid #5b9bd5 ; border-right: none ; border-bottom: none ; border-left: none&quot;&gt;BTQ 1&lt;/td&gt;&#xa;  &lt;td style=&quot;font-size: 11.0pt ; color: black ; font-weight: 400 ; text-decoration: none ; font-family: &amp;quot;calibri&amp;quot; , sans-serif ; border-top: 0.5pt solid #5b9bd5 ; border-right: none ; border-bottom: none ; border-left: none&quot;&gt;700001&lt;/td&gt;&#xa;  &lt;td class=&quot;xl63&quot; style=&quot;font-size: 11.0pt ; color: black ; font-weight: 400 ; text-decoration: none ; font-family: &amp;quot;calibri&amp;quot; , sans-serif ; border-top: 0.5pt solid #5b9bd5 ; border-right: none ; border-bottom: none ; border-left: none ; background: #ffc000&quot;&gt;4100Gross&#xa;  sales before returns&lt;/td&gt;&#xa;  &lt;td class=&quot;xl64&quot; style=&quot;font-size: 11.0pt ; color: black ; font-weight: 400 ; text-decoration: none ; font-family: &amp;quot;calibri&amp;quot; , sans-serif ; border-top: 0.5pt solid #5b9bd5 ; border-right: 0.5pt solid #5b9bd5 ; border-bottom: none ; border-left: none ; background: #fce4d6&quot;&gt;Yes&lt;/td&gt;&#xa; &lt;/tr&gt;&#xa; &lt;tr style=&quot;height: 15.0pt&quot;&gt;&#xa;  &lt;td height=&quot;20&quot; style=&quot;height: 15.0pt ; font-size: 11.0pt ; color: black ; font-weight: 400 ; text-decoration: none ; font-family: &amp;quot;calibri&amp;quot; , sans-serif ; border-top: 0.5pt solid #5b9bd5 ; border-right: none ; border-bottom: none ; border-left: 0.5pt solid #5b9bd5&quot;&gt;Z.701.0102&lt;/td&gt;&#xa;  &lt;td style=&quot;font-size: 11.0pt ; color: black ; font-weight: 400 ; text-decoration: none ; font-family: &amp;quot;calibri&amp;quot; , sans-serif ; border-top: 0.5pt solid #5b9bd5 ; border-right: none ; border-bottom: none ; border-left: none&quot;&gt;4100&lt;/td&gt;&#xa;  &lt;td style=&quot;font-size: 11.0pt ; color: black ; font-weight: 400 ; text-decoration: none ; font-family: &amp;quot;calibri&amp;quot; , sans-serif ; border-top: 0.5pt solid #5b9bd5 ; border-right: none ; border-bottom: none ; border-left: none&quot;&gt;F&amp;amp;B&lt;/td&gt;&#xa;  &lt;td style=&quot;font-size: 11.0pt ; color: black ; font-weight: 400 ; text-decoration: none ; font-family: &amp;quot;calibri&amp;quot; , sans-serif ; border-top: 0.5pt solid #5b9bd5 ; border-right: none ; border-bottom: none ; border-left: none&quot;&gt;UKR&lt;/td&gt;&#xa;  &lt;td style=&quot;font-size: 11.0pt ; color: black ; font-weight: 400 ; text-decoration: none ; font-family: &amp;quot;calibri&amp;quot; , sans-serif ; border-top: 0.5pt solid #5b9bd5 ; border-right: none ; border-bottom: none ; border-left: none&quot;&gt;700001&lt;/td&gt;&#xa;  &lt;td class=&quot;xl63&quot; style=&quot;font-size: 11.0pt ; color: black ; font-weight: 400 ; text-decoration: none ; font-family: &amp;quot;calibri&amp;quot; , sans-serif ; border-top: 0.5pt solid #5b9bd5 ; border-right: none ; border-bottom: none ; border-left: none ; background: #ffc000&quot;&gt;4100Gross&#xa;  sales before returns&lt;/td&gt;&#xa;  &lt;td class=&quot;xl64&quot; style=&quot;font-size: 11.0pt ; color: black ; font-weight: 400 ; text-decoration: none ; font-family: &amp;quot;calibri&amp;quot; , sans-serif ; border-top: 0.5pt solid #5b9bd5 ; border-right: 0.5pt solid #5b9bd5 ; border-bottom: none ; border-left: none ; background: #fce4d6&quot;&gt;Yes&lt;/td&gt;&#xa; &lt;/tr&gt;&#xa; &lt;tr style=&quot;height: 15.0pt&quot;&gt;&#xa;  &lt;td height=&quot;20&quot; style=&quot;height: 15.0pt ; font-size: 11.0pt ; color: black ; font-weight: 400 ; text-decoration: none ; font-family: &amp;quot;calibri&amp;quot; , sans-serif ; border-top: 0.5pt solid #5b9bd5 ; border-right: none ; border-bottom: none ; border-left: 0.5pt solid #5b9bd5&quot;&gt;Z.701.0102&lt;/td&gt;&#xa;  &lt;td style=&quot;font-size: 11.0pt ; color: black ; font-weight: 400 ; text-decoration: none ; font-family: &amp;quot;calibri&amp;quot; , sans-serif ; border-top: 0.5pt solid #5b9bd5 ; border-right: none ; border-bottom: none ; border-left: none&quot;&gt;4100&lt;/td&gt;&#xa;  &lt;td style=&quot;font-size: 11.0pt ; color: black ; font-weight: 400 ; text-decoration: none ; font-family: &amp;quot;calibri&amp;quot; , sans-serif ; border-top: 0.5pt solid #5b9bd5 ; border-right: none ; border-bottom: none ; border-left: none&quot;&gt;Fashion&lt;/td&gt;&#xa;  &lt;td style=&quot;font-size: 11.0pt ; color: black ; font-weight: 400 ; text-decoration: none ; font-family: &amp;quot;calibri&amp;quot; , sans-serif ; border-top: 0.5pt solid #5b9bd5 ; border-right: none ; border-bottom: none ; border-left: none&quot;&gt;BTQ 1&lt;/td&gt;&#xa;  &lt;td style=&quot;font-size: 11.0pt ; color: black ; font-weight: 400 ; text-decoration: none ; font-family: &amp;quot;calibri&amp;quot; , sans-serif ; border-top: 0.5pt solid #5b9bd5 ; border-right: none ; border-bottom: none ; border-left: none&quot;&gt;700001&lt;/td&gt;&#xa;  &lt;td class=&quot;xl63&quot; style=&quot;font-size: 11.0pt ; color: black ; font-weight: 400 ; text-decoration: none ; font-family: &amp;quot;calibri&amp;quot; , sans-serif ; border-top: 0.5pt solid #5b9bd5 ; border-right: none ; border-bottom: none ; border-left: none ; background: #ffc000&quot;&gt;4100Gross&#xa;  sales before returns&lt;/td&gt;&#xa;  &lt;td class=&quot;xl64&quot; style=&quot;font-size: 11.0pt ; color: black ; font-weight: 400 ; text-decoration: none ; font-family: &amp;quot;calibri&amp;quot; , sans-serif ; border-top: 0.5pt solid #5b9bd5 ; border-right: 0.5pt solid #5b9bd5 ; border-bottom: none ; border-left: none ; background: #fce4d6&quot;&gt;Yes&lt;/td&gt;&#xa; &lt;/tr&gt;&#xa;&#xa;&lt;/tbody&gt;&lt;/table&gt;" style="text;whiteSpace=wrap;html=1;" vertex="1" parent="1">
          <mxGeometry x="240" y="-3340" width="550" height="4340" as="geometry" />
        </mxCell>
      </root>
    </mxGraphModel>
  </diagram>
</mxfile>
